<?xml version="1.0" encoding="utf-8"?>
<!-- Generator: Adobe Illustrator 28.1.0, SVG Export Plug-In . SVG Version: 6.00 Build 0)  -->
<svg version="1.1" xmlns="http://www.w3.org/2000/svg" xmlns:xlink="http://www.w3.org/1999/xlink" x="0px" y="0px"
	 viewBox="0 0 19.9 21.8" style="enable-background:new 0 0 19.9 21.8;" xml:space="preserve">
<style type="text/css">
	.st0{stroke:#FFFFFF;stroke-width:0.25;stroke-miterlimit:10;}
	.st1{fill:#FFFFFF;}
	.st2{fill:#FF1A1A;stroke:#FFFFFF;stroke-width:0.25;stroke-miterlimit:10;}
</style>
<g id="Layer_2">
	<path d="M7.5,20C7.4,20,7.4,20,7.5,20c-0.2-0.1-0.7-0.2-1.2,0.2c-0.3,0.2-0.4,0.4-0.5,0.6c0.3,0,0.6,0,1,0c0,0,0,0.1,0,0.1
		c-0.1,0.3-0.1,0.6-0.1,0.8c0.4-0.3,0.8-0.6,1.1-1C7.6,20.5,7.5,20.3,7.5,20z"/>
	<path d="M12.2,20C12.2,20,12.2,20,12.2,20c0.2-0.1,0.7-0.2,1.2,0.2c0.3,0.2,0.4,0.4,0.5,0.6c-0.3,0-0.6,0-1,0c0,0,0,0.1,0,0.1
		c0.1,0.3,0.1,0.6,0.1,0.8c-0.4-0.3-0.8-0.6-1.1-1C12,20.5,12.1,20.3,12.2,20z"/>
</g>
<g id="Layer_1">
	<path d="M10.8,21.1c0.6-0.5,2.5-2.2,3.5-5.5c0.7-2.1,0.8-4,0.7-5.1c-1.9-0.4-3.7-0.7-5.6-1.1C9.9,13.3,10.4,17.2,10.8,21.1z"/>
	<path d="M9.1,21.1c-0.6-0.5-2.5-2.2-3.5-5.5c-0.7-2.1-0.8-4-0.7-5.1c1.9-0.4,3.7-0.7,5.6-1.1C10,13.3,9.6,17.2,9.1,21.1z"/>
	<path class="st0" d="M14,17.6c-1.6-1.5-3.4-4.5-4-6.1c-0.6,1.6-2.4,4.6-4,6.1c-1.2,1.1-3.1,1.9-3.1-0.7c0-0.5,0.2-4.4,0.4-5.1
		c0.5-2.2,2.3-2.8,4-2.4c-2.9-0.6-3.6-2.6-2-4.5c3-3.7,4.3,0.9,4.6,2.1C9.9,7.2,10,7.3,10,7.2c0,0.1,0,0,0.1-0.2
		c0.3-1.2,1.6-5.9,4.6-2.1c1.6,2,0.8,3.9-2,4.5c1.6-0.3,3.5,0.2,4,2.4c0.1,0.6,0.4,4.5,0.4,5.1C17,19.5,15.1,18.7,14,17.6"/>
	<g>
		<g>
			<path d="M14.4,4L14.4,4l-1.3-3.3c-0.1-0.1-0.2-0.2-0.3-0.2c-0.1,0-0.1,0-0.2,0.1c-0.1,0-0.1,0.1-0.1,0.2l-0.8,2.6H8.3L7.5,0.7
				c0-0.2-0.2-0.3-0.4-0.2C7,0.5,6.9,0.6,6.9,0.7L5.6,3.9l0,0c-0.4,1-0.1,2,0.8,2.7l0,0l0,0L8.3,8l0.9,0.7l0.6,0.4
				c0.1,0.1,0.3,0.1,0.5,0l0.6-0.4L11.8,8l1.9-1.4l0,0C14.5,6,14.8,4.9,14.4,4L14.4,4z"/>
			<path class="st1" d="M10,9.5c-0.1,0-0.3,0-0.4-0.1L6.3,6.8C5.3,6.1,5,4.9,5.4,3.9l1.3-3.3C6.7,0.4,6.9,0.3,7,0.2
				c0.1,0,0.3,0,0.4,0.1c0.1,0.1,0.2,0.2,0.3,0.3L8.5,3h3l0.8-2.4c0-0.1,0.1-0.2,0.2-0.3c0.1-0.1,0.2-0.1,0.3-0.1
				c0.3,0,0.5,0.1,0.6,0.4l1.3,3.3c0.4,1.1,0.1,2.3-0.8,2.9l-3.4,2.6C10.3,9.5,10.2,9.5,10,9.5z M7.2,0.7C7.2,0.7,7.2,0.7,7.2,0.7
				C7.1,0.7,7.1,0.7,7.2,0.7L5.9,4C5.5,4.9,5.8,5.9,6.5,6.4L9.9,9c0,0,0.1,0,0.2,0l3.4-2.6c0.7-0.6,1-1.5,0.7-2.4h0L13,0.8
				c0,0,0,0-0.1,0l0,0l-0.1,0.1l-0.9,2.7H8.2L7.2,0.7C7.2,0.7,7.2,0.7,7.2,0.7z"/>
		</g>
	</g>
	<g>
		<path d="M16.9,3.6c0.8-0.2,1.3-0.9,1.1-1.6S17,0.8,16.2,1c-0.8,0.2-1.3,0.9-1.1,1.6c0.1,0.3,0.3,0.6,0.6,0.7c0,0.2,0,0.4,0,0.6
			c0,0,0,0.1,0.1,0.1c0.4-0.2,0.6-0.3,0.7-0.4C16.6,3.6,16.8,3.6,16.9,3.6 M16.5,1.9c0.2-0.4,1.1,0,0.2,0.9
			C15.5,2.4,16.1,1.7,16.5,1.9"/>
	</g>
	<g>
		<path class="st2" d="M8,6.3c-0.5,0-0.9-0.4-0.9-0.9S7.5,4.5,8,4.5c0.5,0,0.9,0.4,0.9,0.9S8.5,6.3,8,6.3 M8,6.4c0.6,0,1-0.5,1-1
			s-0.5-1-1-1c-0.6,0-1,0.5-1,1S7.5,6.4,8,6.4"/>
		<path class="st2" d="M8.4,5.4c0,0.2-0.2,0.4-0.4,0.4c-0.2,0-0.4-0.2-0.4-0.4S7.8,5,8,5C8.2,5,8.4,5.2,8.4,5.4"/>
	</g>
	<g>
		<path class="st2" d="M11.9,6.3c-0.5,0-0.9-0.4-0.9-0.9s0.4-0.9,0.9-0.9c0.5,0,0.9,0.4,0.9,0.9S12.4,6.3,11.9,6.3 M11.9,6.4
			c0.6,0,1-0.5,1-1s-0.5-1-1-1c-0.6,0-1,0.5-1,1S11.3,6.4,11.9,6.4"/>
		<path class="st2" d="M12.3,5.4c0,0.2-0.2,0.4-0.4,0.4c-0.2,0-0.4-0.2-0.4-0.4S11.7,5,11.9,5C12.1,5,12.3,5.2,12.3,5.4"/>
	</g>
	<path d="M9.6,6.5C9.3,6.6,8.8,6.7,8.2,6.7C7.5,6.8,7,6.6,6.7,6.5c0-0.3,0-0.6,0-0.8C7,5.6,7.4,5.4,8,5.4c0.7,0,1.3,0.1,1.6,0.2
		C9.6,5.9,9.6,6.2,9.6,6.5z"/>
	<path d="M13.4,6.5c-0.3,0.1-0.8,0.2-1.4,0.2c-0.6,0-1.1-0.1-1.5-0.2c0-0.3,0-0.6,0-0.8c0.3-0.1,0.8-0.2,1.3-0.2
		c0.7,0,1.3,0.1,1.6,0.2C13.4,5.9,13.4,6.2,13.4,6.5z"/>
</g>
</svg>
